<svg width="238" height="239" viewBox="0 0 238 239" fill="none" xmlns="http://www.w3.org/2000/svg">
<path d="M142.879 136.358C131.346 144.847 114.646 149.379 100.257 149.379C81.0341 149.475 62.4679 142.391 48.1943 129.516C47.1233 128.544 48.0951 127.215 49.3843 127.969C64.2097 136.596 82.5357 141.782 101.467 141.782C114.239 141.782 128.281 139.145 141.203 133.661C143.146 132.828 144.783 134.94 142.879 136.358Z" fill="white"/>
<path d="M147.66 130.874C149.147 132.759 146.024 140.543 144.635 144.014C144.219 145.065 145.121 145.492 146.073 144.698C152.261 139.522 153.848 128.693 152.588 127.126C151.329 125.559 140.52 124.23 133.935 128.871C132.914 129.575 133.082 130.557 134.213 130.428C137.932 129.982 146.192 128.99 147.66 130.874ZM134.471 96.1462V91.6341C134.471 90.9498 134.996 90.4937 135.611 90.4937H155.791C156.436 90.4937 156.952 90.9597 156.952 91.6341V95.5016C156.952 96.1462 156.406 96.9891 155.434 98.3278L144.982 113.252C148.87 113.153 152.965 113.738 156.486 115.722C157.279 116.168 157.497 116.822 157.567 117.477V122.287C157.567 122.941 156.833 123.705 156.079 123.308C152.781 121.61 149.124 120.727 145.414 120.734C141.704 120.741 138.05 121.637 134.758 123.348C134.064 123.724 133.33 122.961 133.33 122.306V117.745C133.33 117.011 133.33 115.761 134.074 114.641L146.172 97.2866H135.631C134.986 97.2866 134.461 96.8205 134.461 96.1561M60.8791 124.26H54.7307C54.4566 124.239 54.1982 124.124 53.9993 123.934C53.8005 123.744 53.6735 123.492 53.6399 123.219V91.7134C53.6399 91.0787 54.1655 90.5829 54.8299 90.5829H60.5518C61.1468 90.6027 61.6228 91.0688 61.6625 91.6341V95.7495H61.7716C63.2591 91.7729 66.0754 89.9185 69.8537 89.9185C73.7013 89.9185 76.1012 91.7729 77.8267 95.7495C78.4396 94.0045 79.5912 92.4994 81.1151 91.4513C82.6391 90.4033 84.4566 89.8665 86.3054 89.9185C87.676 89.8941 89.0331 90.1929 90.2667 90.7908C91.5003 91.3886 92.5757 92.2686 93.4057 93.3596C95.3494 96.0073 94.9527 99.8649 94.9527 103.237V123.119C94.9502 123.273 94.9173 123.424 94.8559 123.564C94.7946 123.705 94.7061 123.832 94.5954 123.938C94.4848 124.044 94.3542 124.127 94.2113 124.182C94.0684 124.237 93.9159 124.264 93.7627 124.26H87.6342C87.341 124.241 87.0652 124.113 86.8601 123.903C86.6551 123.692 86.5352 123.413 86.5236 123.119V106.42C86.5236 105.091 86.6426 101.779 86.355 100.519C85.8988 98.4072 84.5204 97.8122 82.7453 97.8122C81.2578 97.8122 79.7108 98.8038 79.0762 100.39C78.4415 101.977 78.5109 104.635 78.5109 106.42V123.119C78.5083 123.273 78.4754 123.424 78.4141 123.564C78.3528 123.705 78.2642 123.832 78.1536 123.938C78.043 124.044 77.9124 124.127 77.7695 124.182C77.6266 124.237 77.4741 124.264 77.3209 124.26H71.2023C70.9084 124.245 70.6312 124.119 70.4269 123.907C70.2225 123.695 70.1062 123.414 70.1016 123.119L70.0917 106.42C70.0917 102.909 70.6668 97.7427 66.3134 97.7427C61.9005 97.7427 62.0691 102.78 62.0691 106.42V123.119C62.0665 123.273 62.0336 123.424 61.9723 123.564C61.9109 123.705 61.8224 123.832 61.7118 123.938C61.6011 124.044 61.4706 124.127 61.3277 124.182C61.1847 124.237 61.0323 124.264 60.8791 124.26ZM174.336 89.9185C183.439 89.9185 188.368 97.7428 188.368 107.689C188.368 117.289 182.914 124.914 174.326 124.914C165.381 124.914 160.512 117.09 160.512 107.352C160.512 97.5345 165.45 89.9185 174.336 89.9185ZM174.365 96.3445C169.843 96.3445 169.556 102.513 169.556 106.36C169.556 110.208 169.496 118.429 174.316 118.429C179.076 118.429 179.294 111.785 179.294 107.749C179.294 105.091 179.195 101.918 178.382 99.3988C177.687 97.2072 176.319 96.3445 174.365 96.3445ZM200.178 124.26H194.06C193.768 124.238 193.495 124.11 193.292 123.9C193.089 123.689 192.971 123.412 192.959 123.119L192.949 91.6043C192.984 91.3161 193.125 91.0512 193.346 90.8621C193.566 90.673 193.849 90.5734 194.139 90.5829H199.821C200.073 90.5955 200.315 90.6877 200.511 90.8463C200.707 91.005 200.847 91.2218 200.912 91.4655V96.2751H201.031C202.747 91.9713 205.157 89.9185 209.401 89.9185C212.148 89.9185 214.835 90.9102 216.561 93.6273C218.167 96.1462 218.167 100.39 218.167 103.445V123.268C218.12 123.548 217.974 123.802 217.756 123.984C217.538 124.166 217.261 124.264 216.977 124.26H210.829C210.562 124.241 210.309 124.133 210.112 123.953C209.914 123.773 209.782 123.532 209.738 123.268V106.152C209.738 102.711 210.135 97.6733 205.9 97.6733C204.413 97.6733 203.025 98.665 202.35 100.192C201.487 102.116 201.378 104.03 201.378 106.152V123.119C201.366 123.428 201.233 123.72 201.009 123.933C200.785 124.145 200.487 124.263 200.178 124.26ZM118.396 109.216V107.888C113.943 107.888 109.262 108.83 109.262 114.066C109.262 116.713 110.641 118.508 113.001 118.508C114.717 118.508 116.274 117.447 117.245 115.722C118.455 113.6 118.396 111.606 118.396 109.216ZM124.584 124.171C124.385 124.338 124.141 124.442 123.883 124.469C123.624 124.495 123.364 124.443 123.136 124.319C121.093 122.634 120.726 121.84 119.606 120.224C116.234 123.665 113.854 124.686 109.491 124.686C104.324 124.686 100.308 121.513 100.308 115.127C100.308 110.149 102.995 106.747 106.853 105.091C110.185 103.623 114.836 103.365 118.396 102.959V102.166C118.396 100.708 118.495 98.9823 117.642 97.7229C116.898 96.5924 115.46 96.1263 114.191 96.1263C111.861 96.1263 109.778 97.3163 109.262 99.8054C109.163 100.361 108.757 100.906 108.191 100.936L102.241 100.291C101.746 100.182 101.18 99.7757 101.329 99.0022C102.698 91.7927 109.223 89.6111 115.064 89.6111C118.039 89.6111 121.946 90.4044 124.306 92.6753C127.291 95.452 127.003 99.1807 127.003 103.227V112.796C127.003 115.672 128.193 116.931 129.324 118.488C129.711 119.034 129.8 119.698 129.294 120.115C128.045 121.166 125.823 123.1 124.594 124.19L124.584 124.171ZM37.922 109.216V107.888C33.4793 107.888 28.7987 108.83 28.7987 114.066C28.7987 116.713 30.1672 118.508 32.5273 118.508C34.2528 118.508 35.7998 117.447 36.7717 115.722C37.9815 113.6 37.922 111.606 37.922 109.216ZM44.11 124.171C43.9117 124.338 43.6674 124.442 43.4091 124.469C43.1507 124.495 42.8904 124.443 42.6622 124.319C40.6193 122.634 40.2623 121.84 39.1417 120.224C35.7701 123.665 33.3901 124.686 29.0267 124.686C23.8602 124.686 19.834 121.513 19.834 115.127C19.834 110.149 22.5313 106.747 26.379 105.091C29.711 103.623 34.3619 103.365 37.922 102.959V102.166C37.922 100.708 38.0311 98.9823 37.1782 97.7229C36.4246 96.5924 34.9966 96.1263 33.7372 96.1263C31.3968 96.1263 29.3044 97.3163 28.7987 99.8054C28.6995 100.361 28.283 100.906 27.7376 100.936L21.7777 100.291C21.2818 100.182 20.7265 99.7757 20.8653 99.0022C22.2338 91.7927 28.7491 89.6111 34.59 89.6111C37.5749 89.6111 41.4821 90.4044 43.8323 92.6753C46.8172 95.452 46.5396 99.1807 46.5396 103.227V112.796C46.5396 115.672 47.7296 116.931 48.8502 118.488C49.2468 119.034 49.3361 119.698 48.8303 120.115C47.5808 121.166 45.3595 123.1 44.1298 124.19L44.11 124.171Z" fill="white"/>
</svg>
