<svg width="420" height="71" viewBox="0 0 420 71" fill="none" xmlns="http://www.w3.org/2000/svg">
<rect y="5" width="15" height="61" rx="2" fill="#D9D9D9"/>
<rect x="65" y="5" width="15" height="61" rx="2" fill="#D9D9D9"/>
<rect x="21" y="33" width="15" height="33" rx="2" fill="#D9D9D9"/>
<rect x="45" y="25" width="15" height="33" rx="2" fill="#D9D9D9"/>
<path d="M108.64 56.5V14.5826H123.991C126.965 14.5826 129.428 15.0739 131.379 16.0563C133.33 17.0251 134.79 18.3418 135.759 20.0065C136.728 21.6576 137.212 23.5201 137.212 25.5941C137.212 27.3407 136.892 28.8144 136.251 30.0151C135.609 31.2022 134.75 32.1574 133.672 32.8806C132.607 33.5901 131.434 34.1086 130.151 34.4361V34.8454C131.543 34.9137 132.901 35.3639 134.224 36.1963C135.561 37.015 136.667 38.1816 137.54 39.6962C138.413 41.2108 138.85 43.0529 138.85 45.2224C138.85 47.3647 138.345 49.2886 137.335 50.9943C136.339 52.6862 134.797 54.0303 132.71 55.0263C130.622 56.0088 127.954 56.5 124.707 56.5H108.64ZM114.964 51.0761H124.093C127.122 51.0761 129.292 50.4894 130.601 49.3159C131.911 48.1425 132.566 46.6756 132.566 44.9154C132.566 43.5919 132.232 42.3775 131.563 41.2722C130.895 40.167 129.94 39.2869 128.698 38.6319C127.47 37.977 126.01 37.6495 124.318 37.6495H114.964V51.0761ZM114.964 32.7168H123.438C124.857 32.7168 126.133 32.4439 127.265 31.8981C128.411 31.3523 129.319 30.5882 129.987 29.6058C130.67 28.6097 131.011 27.4362 131.011 26.0854C131.011 24.3524 130.404 22.8993 129.189 21.7258C127.975 20.5523 126.112 19.9656 123.602 19.9656H114.964V32.7168ZM149.728 68.2893C148.814 68.2893 147.982 68.2142 147.231 68.0641C146.481 67.9277 145.921 67.7776 145.553 67.6138L147.027 62.5993C148.146 62.8995 149.142 63.0291 150.015 62.9882C150.888 62.9472 151.659 62.6198 152.328 62.0057C153.01 61.3917 153.61 60.3888 154.129 58.997L154.886 56.9093L143.383 25.062H149.933L157.895 49.4592H158.222L166.184 25.062H172.754L159.798 60.6958C159.198 62.3332 158.434 63.7182 157.506 64.8507C156.578 65.9969 155.473 66.8565 154.19 67.4296C152.908 68.0027 151.42 68.2893 149.728 68.2893ZM193.181 25.062V29.9742H176.009V25.062H193.181ZM180.614 17.53H186.733V47.2692C186.733 48.4563 186.911 49.35 187.266 49.9504C187.62 50.5371 188.078 50.9397 188.637 51.158C189.21 51.3627 189.831 51.465 190.5 51.465C190.991 51.465 191.421 51.4309 191.789 51.3627C192.157 51.2944 192.444 51.2399 192.649 51.1989L193.754 56.2544C193.399 56.3908 192.894 56.5273 192.239 56.6637C191.584 56.8138 190.766 56.8957 189.783 56.9093C188.173 56.9366 186.672 56.6501 185.28 56.0497C183.889 55.4493 182.763 54.5215 181.903 53.2661C181.044 52.0108 180.614 50.4348 180.614 48.5382V17.53ZM213.162 57.1345C210.065 57.1345 207.397 56.4727 205.159 55.1491C202.935 53.8119 201.216 51.9358 200.002 49.5206C198.801 47.0918 198.2 44.2468 198.2 40.9857C198.2 37.7655 198.801 34.9273 200.002 32.4712C201.216 30.0151 202.908 28.098 205.077 26.7198C207.261 25.3417 209.812 24.6526 212.732 24.6526C214.506 24.6526 216.225 24.946 217.89 25.5327C219.555 26.1195 221.049 27.0405 222.372 28.2958C223.696 29.5512 224.74 31.1818 225.504 33.1876C226.268 35.1797 226.65 37.6017 226.65 40.4535V42.6231H201.659V38.0384H220.653C220.653 36.4282 220.326 35.0023 219.671 33.7607C219.016 32.5053 218.095 31.5161 216.908 30.7929C215.734 30.0697 214.356 29.7081 212.773 29.7081C211.054 29.7081 209.553 30.1311 208.27 30.9771C207.001 31.8094 206.019 32.901 205.323 34.2519C204.641 35.5891 204.3 37.0423 204.3 38.6114V42.1932C204.3 44.2946 204.668 46.0821 205.405 47.5557C206.155 49.0294 207.199 50.1551 208.536 50.9329C209.874 51.697 211.436 52.079 213.223 52.079C214.383 52.079 215.441 51.9153 216.396 51.5878C217.351 51.2467 218.177 50.7418 218.873 50.0732C219.568 49.4046 220.101 48.5791 220.469 47.5967L226.261 48.6405C225.797 50.3461 224.965 51.8402 223.764 53.1229C222.577 54.3919 221.083 55.3811 219.282 56.0907C217.494 56.7865 215.454 57.1345 213.162 57.1345ZM262.755 56.5H249.185V14.5826H263.185C267.292 14.5826 270.819 15.4218 273.766 17.1001C276.714 18.7648 278.972 21.1595 280.541 24.2842C282.124 27.3953 282.915 31.1272 282.915 35.4799C282.915 39.8463 282.117 43.5987 280.52 46.737C278.938 49.8754 276.645 52.2905 273.643 53.9825C270.642 55.6608 267.012 56.5 262.755 56.5ZM255.509 50.9738H262.407C265.6 50.9738 268.254 50.3734 270.369 49.1726C272.484 47.9582 274.066 46.2049 275.117 43.9125C276.168 41.6065 276.693 38.7956 276.693 35.4799C276.693 32.1915 276.168 29.4011 275.117 27.1087C274.08 24.8164 272.531 23.0766 270.471 21.8895C268.411 20.7024 265.852 20.1089 262.796 20.1089H255.509V50.9738ZM299.438 57.1959C297.445 57.1959 295.644 56.8275 294.034 56.0907C292.424 55.3402 291.148 54.2554 290.207 52.8363C289.279 51.4172 288.815 49.6775 288.815 47.6171C288.815 45.8433 289.156 44.3833 289.838 43.2371C290.521 42.0909 291.442 41.1835 292.601 40.5149C293.761 39.8463 295.058 39.3414 296.49 39.0003C297.923 38.6592 299.383 38.3999 300.87 38.2226C302.753 38.0042 304.282 37.8269 305.455 37.6904C306.628 37.5403 307.481 37.3015 308.013 36.974C308.546 36.6466 308.812 36.1144 308.812 35.3776V35.2343C308.812 33.4468 308.307 32.0619 307.297 31.0794C306.301 30.097 304.814 29.6058 302.835 29.6058C300.775 29.6058 299.151 30.0629 297.964 30.9771C296.79 31.8776 295.979 32.8806 295.528 33.9858L289.777 32.6759C290.459 30.7656 291.455 29.2237 292.765 28.0502C294.089 26.8631 295.61 26.0035 297.329 25.4713C299.049 24.9255 300.857 24.6526 302.753 24.6526C304.009 24.6526 305.339 24.8027 306.744 25.1029C308.164 25.3895 309.487 25.9216 310.715 26.6994C311.957 27.4771 312.973 28.5892 313.765 30.0356C314.556 31.4683 314.952 33.3308 314.952 35.6232V56.5H308.975V52.2018H308.73C308.334 52.9932 307.741 53.771 306.949 54.5351C306.158 55.2992 305.141 55.9337 303.899 56.4386C302.658 56.9435 301.17 57.1959 299.438 57.1959ZM300.768 52.2837C302.46 52.2837 303.906 51.9494 305.107 51.2808C306.321 50.6122 307.242 49.7389 307.87 48.661C308.511 47.5694 308.832 46.4027 308.832 45.161V41.1085C308.614 41.3268 308.191 41.5315 307.563 41.7225C306.949 41.8999 306.246 42.0568 305.455 42.1932C304.664 42.3161 303.893 42.432 303.142 42.5412C302.392 42.6367 301.764 42.7186 301.259 42.7868C300.072 42.9369 298.987 43.1893 298.005 43.5441C297.036 43.8989 296.258 44.4106 295.672 45.0792C295.098 45.7341 294.812 46.6074 294.812 47.699C294.812 49.2136 295.371 50.3598 296.49 51.1375C297.609 51.9016 299.035 52.2837 300.768 52.2837ZM329.223 37.8337V56.5H323.103V25.062H328.977V30.1788H329.366C330.089 28.5142 331.222 27.177 332.764 26.1672C334.319 25.1575 336.277 24.6526 338.638 24.6526C340.78 24.6526 342.656 25.1029 344.266 26.0035C345.876 26.8904 347.125 28.214 348.012 29.9742C348.899 31.7344 349.342 33.9107 349.342 36.5033V56.5H343.223V37.2401C343.223 34.9614 342.629 33.1807 341.442 31.8981C340.255 30.6018 338.624 29.9537 336.55 29.9537C335.131 29.9537 333.869 30.2607 332.764 30.8747C331.672 31.4888 330.806 32.3893 330.164 33.5764C329.537 34.7499 329.223 36.169 329.223 37.8337ZM370.792 57.1345C367.749 57.1345 365.13 56.4454 362.933 55.0673C360.75 53.6755 359.071 51.7584 357.898 49.3159C356.724 46.8735 356.138 44.0763 356.138 40.9243C356.138 37.7313 356.738 34.9137 357.939 32.4712C359.139 30.0151 360.831 28.098 363.015 26.7198C365.198 25.3417 367.77 24.6526 370.731 24.6526C373.119 24.6526 375.247 25.0961 377.117 25.983C378.986 26.8563 380.494 28.0843 381.64 29.6672C382.8 31.25 383.489 33.0989 383.707 35.2138H377.751C377.424 33.7402 376.673 32.4712 375.5 31.4069C374.34 30.3426 372.784 29.8104 370.833 29.8104C369.128 29.8104 367.633 30.2607 366.351 31.1613C365.082 32.0482 364.093 33.3172 363.383 34.9682C362.673 36.6056 362.319 38.5432 362.319 40.781C362.319 43.0733 362.667 45.0519 363.363 46.7166C364.058 48.3812 365.041 49.6707 366.31 50.5849C367.592 51.4991 369.1 51.9562 370.833 51.9562C371.993 51.9562 373.044 51.7447 373.985 51.3217C374.94 50.8851 375.739 50.2642 376.38 49.4592C377.035 48.6541 377.492 47.6853 377.751 46.5528H383.707C383.489 48.5859 382.827 50.4007 381.722 51.9972C380.617 53.5936 379.136 54.849 377.28 55.7632C375.438 56.6774 373.276 57.1345 370.792 57.1345ZM403.801 57.1345C400.704 57.1345 398.036 56.4727 395.798 55.1491C393.574 53.8119 391.855 51.9358 390.641 49.5206C389.44 47.0918 388.839 44.2468 388.839 40.9857C388.839 37.7655 389.44 34.9273 390.641 32.4712C391.855 30.0151 393.547 28.098 395.716 26.7198C397.9 25.3417 400.451 24.6526 403.371 24.6526C405.145 24.6526 406.864 24.946 408.529 25.5327C410.194 26.1195 411.688 27.0405 413.011 28.2958C414.335 29.5512 415.379 31.1818 416.143 33.1876C416.907 35.1797 417.289 37.6017 417.289 40.4535V42.6231H392.298V38.0384H411.292C411.292 36.4282 410.965 35.0023 410.31 33.7607C409.655 32.5053 408.734 31.5161 407.547 30.7929C406.373 30.0697 404.995 29.7081 403.412 29.7081C401.693 29.7081 400.192 30.1311 398.909 30.9771C397.64 31.8094 396.658 32.901 395.962 34.2519C395.28 35.5891 394.939 37.0423 394.939 38.6114V42.1932C394.939 44.2946 395.307 46.0821 396.044 47.5557C396.794 49.0294 397.838 50.1551 399.175 50.9329C400.513 51.697 402.075 52.079 403.863 52.079C405.022 52.079 406.08 51.9153 407.035 51.5878C407.99 51.2467 408.816 50.7418 409.512 50.0732C410.207 49.4046 410.74 48.5791 411.108 47.5967L416.9 48.6405C416.436 50.3461 415.604 51.8402 414.403 53.1229C413.216 54.3919 411.722 55.3811 409.921 56.0907C408.133 56.7865 406.093 57.1345 403.801 57.1345Z" fill="white"/>
</svg>
