<svg width="224" height="49" viewBox="0 0 224 49" fill="none" xmlns="http://www.w3.org/2000/svg">
<path opacity="0.5" d="M15.964 16.4651C14.499 17.9289 14.499 20.2864 14.499 25.0001C14.499 29.7139 14.499 32.0714 15.964 33.5351C17.429 34.9989 19.7853 35.0001 24.499 35.0001H26.374C31.0878 35.0001 33.4453 35.0001 34.909 33.5351C36.3728 32.0701 36.374 29.7139 36.374 25.0001C36.374 20.2864 36.374 17.9289 34.909 16.4651C33.444 15.0014 31.0878 15.0001 26.374 15.0001H24.499C19.7853 15.0001 17.4278 15.0001 15.964 16.4651Z" fill="#D9D8DE"/>
<path d="M36.3634 27.5001C36.3746 26.7501 36.3747 25.9201 36.3747 25.0001C36.3747 24.0813 36.3746 23.2501 36.3634 22.5001H36.9997C38.1772 22.5001 38.7672 22.5001 39.1334 22.8663C39.4997 23.2326 39.4997 23.8213 39.4997 25.0001C39.4997 26.1788 39.4997 26.7676 39.1334 27.1338C38.7672 27.5001 38.1772 27.5001 36.9997 27.5001H36.3634ZM27.0947 21.8501C27.2468 21.6583 27.3179 21.4147 27.2928 21.1713C27.2677 20.9278 27.1484 20.7038 26.9604 20.5471C26.7724 20.3904 26.5306 20.3135 26.2866 20.3327C26.0426 20.352 25.8158 20.4658 25.6546 20.6501L22.5296 24.4001C22.4156 24.5369 22.343 24.7035 22.3202 24.8801C22.2974 25.0568 22.3254 25.2363 22.401 25.3976C22.4765 25.559 22.5965 25.6954 22.7468 25.791C22.8971 25.8867 23.0715 25.9375 23.2496 25.9376H25.6234L23.7796 28.1501C23.6275 28.3418 23.5564 28.5854 23.5815 28.8288C23.6066 29.0723 23.7259 29.2963 23.9139 29.453C24.1019 29.6097 24.3437 29.6866 24.5877 29.6674C24.8317 29.6481 25.0585 29.5343 25.2197 29.3501L28.3447 25.6001C28.4587 25.4632 28.5313 25.2966 28.5541 25.12C28.5769 24.9433 28.5489 24.7638 28.4733 24.6025C28.3978 24.4411 28.2778 24.3047 28.1275 24.2091C27.9772 24.1134 27.8028 24.0626 27.6247 24.0626H25.2509L27.0947 21.8501Z" fill="#D9D8DE"/>
<path d="M60.6158 35.5V13.9053H63.874V32.6952H73.659V35.5H60.6158ZM80.6341 13.9053V35.5H77.3759V13.9053H80.6341ZM88.2787 25.8836V35.5H85.1259V19.304H88.1521V21.9401H88.3525C88.725 21.0825 89.3085 20.3936 90.1028 19.8734C90.9042 19.3532 91.9129 19.0931 93.129 19.0931C94.2327 19.0931 95.1992 19.3251 96.0287 19.789C96.8582 20.246 97.5014 20.9278 97.9583 21.8346C98.4152 22.7414 98.6437 23.8626 98.6437 25.1983V35.5H95.4909V25.5778C95.4909 24.4039 95.1852 23.4866 94.5736 22.8258C93.962 22.158 93.122 21.8241 92.0535 21.8241C91.3224 21.8241 90.6722 21.9822 90.1028 22.2986C89.5405 22.6149 89.0941 23.0789 88.7637 23.6904C88.4403 24.295 88.2787 25.026 88.2787 25.8836ZM105.772 30.0064L105.751 26.1578H106.299L112.752 19.304H116.527L109.167 27.1068H108.671L105.772 30.0064ZM102.872 35.5V13.9053H106.025V35.5H102.872ZM113.1 35.5L107.301 27.8027L109.473 25.5989L116.97 35.5H113.1ZM122.911 35.5L118.145 19.304H121.403L124.577 31.1979H124.735L127.92 19.304H131.178L134.341 31.1452H134.499L137.652 19.304H140.91L136.155 35.5H132.939L129.649 23.8064H129.407L126.117 35.5H122.911ZM150.232 35.8269C148.713 35.8269 147.388 35.4789 146.256 34.783C145.125 34.0871 144.246 33.1135 143.62 31.8622C142.995 30.611 142.682 29.1488 142.682 27.4758C142.682 25.7958 142.995 24.3266 143.62 23.0683C144.246 21.81 145.125 20.8329 146.256 20.137C147.388 19.4411 148.713 19.0931 150.232 19.0931C151.75 19.0931 153.075 19.4411 154.207 20.137C155.338 20.8329 156.217 21.81 156.843 23.0683C157.468 24.3266 157.781 25.7958 157.781 27.4758C157.781 29.1488 157.468 30.611 156.843 31.8622C156.217 33.1135 155.338 34.0871 154.207 34.783C153.075 35.4789 151.75 35.8269 150.232 35.8269ZM150.242 33.1803C151.226 33.1803 152.042 32.9202 152.688 32.4C153.335 31.8798 153.813 31.1874 154.122 30.3228C154.439 29.4581 154.597 28.5056 154.597 27.4653C154.597 26.4319 154.439 25.4829 154.122 24.6183C153.813 23.7467 153.335 23.0472 152.688 22.52C152.042 21.9928 151.226 21.7292 150.242 21.7292C149.251 21.7292 148.428 21.9928 147.775 22.52C147.128 23.0472 146.646 23.7467 146.33 24.6183C146.021 25.4829 145.866 26.4319 145.866 27.4653C145.866 28.5056 146.021 29.4581 146.33 30.3228C146.646 31.1874 147.128 31.8798 147.775 32.4C148.428 32.9202 149.251 33.1803 150.242 33.1803ZM161.3 35.5V19.304H164.348V21.8768H164.516C164.812 21.0051 165.332 20.3198 166.077 19.8207C166.829 19.3145 167.68 19.0615 168.629 19.0615C168.825 19.0615 169.057 19.0685 169.325 19.0826C169.599 19.0966 169.813 19.1142 169.968 19.1353V22.151C169.841 22.1158 169.616 22.0771 169.293 22.035C168.97 21.9858 168.646 21.9612 168.323 21.9612C167.578 21.9612 166.913 22.1193 166.33 22.4357C165.754 22.745 165.297 23.1773 164.959 23.7326C164.622 24.2809 164.453 24.9065 164.453 25.6095V35.5H161.3ZM178.179 35.8163C176.872 35.8163 175.705 35.4824 174.678 34.8146C173.659 34.1398 172.858 33.1803 172.274 31.936C171.698 30.6848 171.41 29.184 171.41 27.4336C171.41 25.6833 171.701 24.186 172.285 22.9418C172.875 21.6976 173.684 20.7451 174.71 20.0843C175.736 19.4235 176.9 19.0931 178.2 19.0931C179.205 19.0931 180.014 19.2618 180.625 19.5992C181.244 19.9296 181.722 20.3163 182.059 20.7591C182.404 21.202 182.671 21.5921 182.861 21.9295H183.051V13.9053H186.203V35.5H183.124V32.9799H182.861C182.671 33.3244 182.397 33.718 182.038 34.1609C181.687 34.6037 181.202 34.9904 180.583 35.3207C179.965 35.6511 179.163 35.8163 178.179 35.8163ZM178.875 33.1275C179.782 33.1275 180.548 32.8885 181.174 32.4105C181.806 31.9255 182.284 31.2542 182.608 30.3966C182.938 29.539 183.103 28.5408 183.103 27.402C183.103 26.2773 182.942 25.2931 182.618 24.4496C182.295 23.6061 181.82 22.9488 181.195 22.4778C180.569 22.0069 179.796 21.7714 178.875 21.7714C177.926 21.7714 177.135 22.0174 176.503 22.5095C175.87 23.0015 175.392 23.6728 175.069 24.5234C174.752 25.374 174.594 26.3335 174.594 27.402C174.594 28.4845 174.756 29.4581 175.079 30.3228C175.402 31.1874 175.88 31.8728 176.513 32.3789C177.153 32.878 177.94 33.1275 178.875 33.1275ZM197.683 35.8269C196.088 35.8269 194.713 35.4859 193.561 34.8041C192.415 34.1152 191.529 33.1486 190.903 31.9044C190.285 30.6532 189.975 29.1875 189.975 27.5074C189.975 25.8485 190.285 24.3863 190.903 23.121C191.529 21.8557 192.401 20.8681 193.518 20.1581C194.643 19.4481 195.958 19.0931 197.462 19.0931C198.376 19.0931 199.261 19.2443 200.119 19.5465C200.977 19.8488 201.746 20.3233 202.428 20.97C203.11 21.6167 203.648 22.4567 204.042 23.4901C204.435 24.5164 204.632 25.7641 204.632 27.2333V28.351H191.757V25.9891H201.543C201.543 25.1596 201.374 24.425 201.036 23.7853C200.699 23.1386 200.225 22.629 199.613 22.2564C199.008 21.8838 198.298 21.6976 197.483 21.6976C196.597 21.6976 195.824 21.9155 195.163 22.3513C194.51 22.7801 194.003 23.3425 193.645 24.0384C193.293 24.7273 193.118 25.4759 193.118 26.2843V28.1296C193.118 29.2121 193.307 30.133 193.687 30.8922C194.074 31.6513 194.611 32.2313 195.3 32.632C195.989 33.0256 196.794 33.2224 197.715 33.2224C198.312 33.2224 198.857 33.1381 199.349 32.9694C199.841 32.7936 200.267 32.5335 200.625 32.1891C200.984 31.8447 201.258 31.4194 201.448 30.9132L204.432 31.451C204.193 32.3297 203.764 33.0994 203.145 33.7602C202.534 34.4139 201.764 34.9236 200.836 35.2891C199.915 35.6476 198.864 35.8269 197.683 35.8269ZM211.283 25.8836V35.5H208.13V19.304H211.156V21.9401H211.357C211.729 21.0825 212.313 20.3936 213.107 19.8734C213.908 19.3532 214.917 19.0931 216.133 19.0931C217.237 19.0931 218.203 19.3251 219.033 19.789C219.862 20.246 220.506 20.9278 220.962 21.8346C221.419 22.7414 221.648 23.8626 221.648 25.1983V35.5H218.495V25.5778C218.495 24.4039 218.189 23.4866 217.578 22.8258C216.966 22.158 216.126 21.8241 215.058 21.8241C214.327 21.8241 213.676 21.9822 213.107 22.2986C212.545 22.6149 212.098 23.0789 211.768 23.6904C211.444 24.295 211.283 25.026 211.283 25.8836Z" fill="white"/>
</svg>
