<svg width="32" height="33" viewBox="0 0 32 33" fill="none" xmlns="http://www.w3.org/2000/svg">
<path d="M24.6437 22.8561C22.8212 23.2937 20.9187 23.2725 19.1065 22.7944C17.2942 22.3163 15.6288 21.3962 14.2595 20.1165C12.8901 18.8368 11.8594 17.2375 11.2598 15.4618C10.6602 13.686 10.5103 11.7893 10.8237 9.94141C10.7767 9.9882 10.7264 10.0314 10.673 10.0707C10.2997 10.3547 9.833 10.4601 8.89966 10.6707L8.053 10.8627C4.773 11.6054 3.133 11.9761 2.74233 13.2307C2.353 14.4841 3.47033 15.7921 5.70633 18.4067L6.285 19.0827C6.91966 19.8254 7.23833 20.1974 7.381 20.6561C7.52366 21.1161 7.47566 21.6121 7.37966 22.6027L7.29166 23.5054C6.95433 26.9947 6.785 28.7387 7.80633 29.5134C8.82766 30.2881 10.3637 29.5827 13.433 28.1681L14.229 27.8027C15.101 27.4001 15.537 27.2001 15.9997 27.2001C16.4623 27.2001 16.8983 27.4001 17.7717 27.8027L18.565 28.1681C21.6357 29.5814 23.1717 30.2881 24.1917 29.5147C25.2143 28.7387 25.045 26.9947 24.7077 23.5054L24.6437 22.8561Z" fill="white"/>
<path opacity="0.5" d="M12.2036 7.71075L11.7663 8.49475C11.2863 9.35608 11.0463 9.78675 10.6729 10.0707C10.7263 10.0307 10.7765 9.98764 10.8236 9.94141C10.5102 11.7894 10.6601 13.6863 11.2597 15.4622C11.8594 17.2381 12.8902 18.8375 14.2597 20.1172C15.6293 21.3969 17.2949 22.317 19.1073 22.795C20.9197 23.273 22.8224 23.294 24.6449 22.8561L24.6183 22.6027C24.5236 21.6121 24.4756 21.1161 24.6183 20.6561C24.7609 20.1974 25.0783 19.8254 25.7143 19.0827L26.2929 18.4067C28.5289 15.7934 29.6463 14.4854 29.2556 13.2307C28.8663 11.9761 27.2263 11.6041 23.9463 10.8627L23.0983 10.6707C22.1663 10.4601 21.6996 10.3547 21.3249 10.0707C20.9516 9.78675 20.7116 9.35608 20.2316 8.49475L19.7956 7.71075C18.1063 4.68141 17.2623 3.16675 15.9996 3.16675C14.7369 3.16675 13.8929 4.68141 12.2036 7.71075Z" fill="white"/>
</svg>
