<svg width="31" height="31" viewBox="0 0 31 31" fill="none" xmlns="http://www.w3.org/2000/svg">
<g clip-path="url(#clip0_8_669)">
<path d="M29.6727 1.18399C29.0979 0.811244 28.3987 0.682037 27.7287 0.824789C27.0587 0.967541 26.4728 1.37056 26.0999 1.94521L11.6247 24.2575L4.56527 17.7302C4.3162 17.5 4.02422 17.321 3.70598 17.2035C3.38775 17.0861 3.04949 17.0324 2.71054 17.0457C2.02598 17.0725 1.38011 17.3702 0.915015 17.8732C0.449918 18.3762 0.203689 19.0434 0.230496 19.7279C0.257303 20.4125 0.554951 21.0583 1.05796 21.5234L10.327 30.0932C10.327 30.0932 10.593 30.3223 10.7162 30.4024C11.0008 30.5871 11.319 30.7139 11.6527 30.7756C11.9863 30.8373 12.3288 30.8327 12.6607 30.762C12.9925 30.6913 13.3072 30.5559 13.5867 30.3636C13.8662 30.1713 14.1052 29.9258 14.2898 29.6411L30.4339 4.75674C30.8067 4.182 30.9359 3.48274 30.7931 2.81274C30.6504 2.14274 30.2473 1.55688 29.6727 1.18399Z" fill="white"/>
</g>
<defs>
<clipPath id="clip0_8_669">
<rect width="31" height="31" fill="white"/>
</clipPath>
</defs>
</svg>
